Coordinates
version=1
nRows=36
nColumns=30
inDegrees=yes

Units are S.I. units (second, meters, Newtons, ...)
Angles are in degrees.

endheader
time	floatyaw	floatroll	floatpitch	floatx	floaty	floatz	pro_sup_l	deviation_l	flexion_l	cmc_flexion_l	cmc_abduction_l	mp_flexion_l	ip_flexion_l	2mcp_flexion_l	2mcp_abduction_l	2pm_flexion_l	2md_flexion_l	3mcp_flexion_l	3mcp_abduction_l	3pm_flexion_l	3md_flexion_l	4mcp_flexion_l	4mcp_abduction_l	4pm_flexion_l	4md_flexion_l	5mcp_flexion_l	5mcp_abduction_l	5pm_flexion_l	5md_flexion_l
0.005000	-160.147433	-5.066637	-73.570646	-0.061362	-0.109238	-0.117782	109.022319	25.376953	-3.897805	-2.105642	40.838439	-27.107140	-52.982861	46.792876	16.047082	60.710733	64.273810	59.260591	6.558953	75.365542	58.372123	54.771282	-6.023690	84.069185	66.445773	33.391342	-14.691407	82.841576	69.133849
0.015000	-160.147433	-5.066637	-73.570646	-0.060746	-0.105364	-0.116655	107.101609	25.379324	-3.298041	-2.013558	41.168653	-27.146936	-53.959007	48.337320	16.121225	59.153402	64.616082	60.540083	6.543605	74.801979	58.614709	55.939424	-6.047624	83.717118	66.845757	33.569868	-14.761190	82.970366	69.629512
0.025000	-160.147433	-5.066637	-73.570646	-0.060048	-0.100949	-0.115630	105.574515	25.375792	-2.690367	-1.527173	41.119097	-27.196871	-54.836281	49.594500	16.191320	57.521023	64.668007	61.268682	6.518819	73.820108	58.619782	56.791790	-6.073587	82.654848	67.011243	33.539505	-14.870350	82.661780	70.077217
0.035000	-160.147433	-5.066637	-73.570646	-0.059426	-0.096581	-0.114812	104.386099	25.342420	-1.939143	-0.934211	40.829525	-27.379614	-55.679599	50.569755	16.279091	55.993997	64.602827	61.642358	6.487793	72.695761	58.593592	57.445939	-6.110516	81.306629	67.159582	33.463638	-14.977216	82.164671	70.477926
0.045000	-160.147433	-5.066637	-73.570646	-0.058960	-0.092912	-0.114244	103.457762	25.247232	-1.048799	-0.463948	40.449424	-27.783473	-56.535601	51.235768	16.368395	54.700809	64.486694	61.796800	6.453687	71.674417	58.617985	57.901650	-6.154699	80.093074	67.384642	33.389414	-15.044393	81.708578	70.756730
0.055000	-160.147433	-5.066637	-73.570646	-0.058644	-0.090410	-0.113915	102.724786	25.071989	-0.151441	-0.232565	40.083139	-28.416855	-57.386209	51.582669	16.436849	53.711183	64.335575	61.811240	6.420013	70.932548	58.683950	58.112126	-6.196446	79.317693	67.679035	33.283308	-15.060174	81.436683	70.848020
0.065000	-160.147433	-5.066637	-73.570646	-0.058415	-0.089193	-0.113776	102.151507	24.826940	0.577324	-0.239372	39.767514	-29.200753	-58.146660	51.642651	16.473694	53.033824	64.158065	61.725400	6.389651	70.544333	58.742714	58.055407	-6.226769	79.088478	67.976560	33.086491	-15.036830	81.380706	70.745470
0.075000	-160.147433	-5.066637	-73.570646	-0.058198	-0.089031	-0.113758	101.722313	24.549177	1.020094	-0.408538	39.484973	-30.003728	-58.708617	51.488360	16.482425	52.626262	63.968558	61.562229	6.364213	70.475991	58.748935	57.770467	-6.241439	79.316848	68.199530	32.763803	-14.996619	81.484064	70.502792
0.085000	-160.147433	-5.066637	-73.570646	-0.057949	-0.089481	-0.113796	101.423484	24.287834	1.174741	-0.648016	39.194167	-30.696447	-58.993746	51.214092	16.474310	52.412343	63.780691	61.344819	6.344168	70.612366	58.684343	57.347563	-6.241556	79.787642	68.297867	32.326123	-14.957853	81.650086	70.201448
0.095000	-160.147433	-5.066637	-73.570646	-0.057662	-0.090084	-0.113836	101.232386	24.087366	1.139753	-0.891715	38.854245	-31.196885	-58.982218	50.906665	16.459840	52.301577	63.597304	61.097484	6.329268	70.804013	58.561629	56.885946	-6.231428	80.259738	68.268090	31.820132	-14.927768	81.785805	69.912033
0.105000	-160.147433	-5.066637	-73.570646	-0.057354	-0.090522	-0.113838	101.119920	23.977622	1.048235	-1.108098	38.432143	-31.489112	-58.706980	50.615785	16.443075	52.209472	63.406330	60.833549	6.318921	70.917522	58.414138	56.447105	-6.215594	80.552856	68.146857	31.297236	-14.903137	81.826314	69.669627
0.115000	-160.147433	-5.066637	-73.570646	-0.057044	-0.090676	-0.113779	101.061067	23.971630	0.996683	-1.283892	37.900024	-31.614293	-58.229019	50.339874	16.421101	52.077107	63.184627	60.544952	6.312494	70.873116	58.279225	56.031898	-6.196842	80.592052	67.986311	30.784374	-14.875979	81.741184	69.470575
0.125000	-160.147433	-5.066637	-73.570646	-0.056734	-0.090602	-0.113648	101.044043	24.067210	1.007665	-1.405085	37.235609	-31.643537	-57.613564	50.038116	16.387884	51.883278	62.908454	60.207109	6.309581	70.659010	58.183308	55.593774	-6.176024	80.403976	67.827632	30.275196	-14.840262	81.531138	69.286574
0.135000	-160.147433	-5.066637	-73.570646	-0.056418	-0.090438	-0.113452	101.071348	24.249234	1.038530	-1.451494	36.430374	-31.646365	-56.917024	49.662658	16.339567	51.642973	62.566685	59.798127	6.310085	70.320894	58.134333	55.077415	-6.153191	80.078554	67.686941	29.743983	-14.795997	81.221201	69.085366
0.145000	-160.147433	-5.066637	-73.570646	-0.056084	-0.090319	-0.113216	101.152239	24.492234	1.021697	-1.405363	35.500075	-31.667112	-56.183534	49.191466	16.277896	51.392864	62.169891	59.318734	6.313986	69.933966	58.122821	54.457855	-6.128873	79.719388	67.557101	29.169534	-14.749089	80.852115	68.847263
0.155000	-160.147433	-5.066637	-73.570646	-0.055735	-0.090317	-0.112971	101.291714	24.764386	0.909189	-1.262916	34.488188	-31.716472	-55.446443	48.643228	16.209917	51.171724	61.748888	58.798663	6.320836	69.570644	58.128564	53.757800	-6.104592	79.404329	67.419398	28.552594	-14.707798	80.469862	68.571378
0.165000	-160.147433	-5.066637	-73.570646	-0.055387	-0.090430	-0.112752	101.482913	25.033177	0.697755	-1.037977	33.457120	-31.778705	-54.731632	48.068350	16.144527	51.005596	61.342132	58.285331	6.329350	69.277336	58.128681	53.036482	-6.082455	79.168162	67.256170	27.917625	-14.678253	80.114618	68.271498
0.175000	-160.147433	-5.066637	-73.570646	-0.055061	-0.090601	-0.112583	101.707172	25.271643	0.425669	-0.755411	32.469899	-31.828436	-54.061019	47.524362	16.088188	50.903601	60.978530	57.822628	6.337543	69.067996	58.104050	52.360295	-6.064287	79.007659	67.058491	27.300468	-14.661614	79.812557	67.966253
0.185000	-160.147433	-5.066637	-73.570646	-0.054779	-0.090762	-0.112473	101.940725	25.463265	0.148925	-0.440340	31.571092	-31.847740	-53.454596	47.051161	16.042329	50.863414	60.665420	57.433090	6.343482	68.933045	58.043133	51.773833	-6.050903	78.900144	66.827696	26.731127	-14.654179	79.573799	67.669802
0.195000	-160.147433	-5.066637	-73.570646	-0.054549	-0.090869	-0.112416	102.163042	25.603806	-0.086236	-0.110914	30.776368	-31.835618	-52.929667	46.658800	16.003708	50.879862	60.388392	57.113117	6.346209	68.854706	57.943386	51.286436	-6.041893	78.823290	66.572779	26.222230	-14.649844	79.396476	67.387523
0.205000	-160.147433	-5.066637	-73.570646	-0.054369	-0.090909	-0.112396	102.361911	25.699449	-0.259615	0.222055	30.075396	-31.806792	-52.497679	46.331713	15.967351	50.948990	60.122989	56.841966	6.346140	68.818371	57.811003	50.878188	-6.035994	78.766092	66.307020	25.768979	-14.643265	79.272687	67.117976
0.215000	-160.147433	-5.066637	-73.570646	-0.054231	-0.090903	-0.112396	102.533666	25.762072	-0.377191	0.551161	29.445141	-31.781998	-52.160633	46.044045	15.930347	51.064132	59.852115	56.597201	6.344594	68.814484	57.659874	50.518143	-6.031840	78.727426	66.046380	25.358579	-14.632098	79.191276	66.859266
0.225000	-160.147433	-5.066637	-73.570646	-0.054119	-0.090883	-0.112403	102.680207	25.803829	-0.459930	0.869506	28.864726	-31.775711	-51.909239	45.775683	15.894442	51.207845	59.580040	56.366826	6.342770	68.833139	57.509896	50.182580	-6.028700	78.706504	65.809396	24.981340	-14.617500	79.136723	66.615566
0.235000	-160.147433	-5.066637	-73.570646	-0.054021	-0.090874	-0.112411	102.805493	25.833400	-0.530217	1.171851	28.323132	-31.788243	-51.724179	45.520101	15.865923	51.348232	59.335229	56.151912	6.340876	68.858641	57.383676	49.863881	-6.026775	78.694166	65.615803	24.635769	-14.602907	79.088484	66.399072
0.245000	-160.147433	-5.066637	-73.570646	-0.053924	-0.090889	-0.112421	102.913352	25.855057	-0.602778	1.458211	27.817094	-31.806480	-51.580691	45.281831	15.852623	51.445805	59.159229	55.960300	6.338024	68.870299	57.300774	49.567887	-6.026853	78.672341	65.481803	24.325445	-14.591917	79.025056	66.225358
0.255000	-160.147433	-5.066637	-73.570646	-0.053821	-0.090924	-0.112436	103.006903	25.870007	-0.682296	1.735506	27.343730	-31.812242	-51.455381	45.068118	15.859374	51.469218	59.085816	55.797246	6.332957	68.850130	57.270483	49.304234	-6.029547	78.622545	65.412983	24.051718	-14.586369	78.932197	66.104505
0.265000	-160.147433	-5.066637	-73.570646	-0.053708	-0.090969	-0.112458	103.088736	25.878452	-0.765999	2.014365	26.895235	-31.792735	-51.332630	44.881690	15.884356	51.410893	59.120732	55.659805	6.325134	68.792308	57.286658	49.076929	-6.034606	78.537612	65.399014	23.808600	-14.585513	78.810306	66.033492
0.275000	-160.147433	-5.066637	-73.570646	-0.053585	-0.091014	-0.112487	103.160800	25.881004	-0.847952	2.302251	26.460072	-31.747007	-51.207853	44.718889	15.918734	51.292343	59.233803	55.538194	6.315409	68.707206	57.328814	48.880801	-6.040798	78.428114	65.414918	23.583733	-14.586500	78.675667	65.995019
0.285000	-160.147433	-5.066637	-73.570646	-0.053459	-0.091052	-0.112517	103.223768	25.878988	-0.922385	2.597216	26.029403	-31.685786	-51.086426	44.572690	15.950205	51.154950	59.369335	55.422205	6.305818	68.616442	57.370460	48.704932	-6.046428	78.318185	65.430247	23.364393	-14.585815	78.553934	65.963891
0.295000	-160.147433	-5.066637	-73.570646	-0.053338	-0.091082	-0.112545	103.276723	25.873974	-0.985190	2.886454	25.603366	-31.626201	-50.979119	44.436970	15.968442	51.041331	59.469592	55.307332	6.298633	68.541776	57.390389	48.539469	-6.050093	78.232851	65.421733	23.143939	-14.580894	78.468859	65.917201
0.305000	-160.147433	-5.066637	-73.570646	-0.053232	-0.091107	-0.112566	103.318144	25.867325	-1.034329	3.150664	25.191905	-31.584639	-50.896054	44.308738	15.969116	50.977902	59.497935	55.196173	6.295291	68.494683	57.380446	48.380693	-6.051157	78.184734	65.382116	22.924517	-14.571168	78.431674	65.842741
0.315000	-160.147433	-5.066637	-73.570646	-0.053146	-0.091129	-0.112581	103.348023	25.860402	-1.070300	3.371766	24.809280	-31.570506	-50.841517	44.187740	15.954432	50.967296	59.449435	55.094979	6.295831	68.472153	57.346129	48.231474	-6.049724	78.168086	65.320430	22.715211	-14.558144	78.436045	65.742219
0.325000	-160.147433	-5.066637	-73.570646	-0.053081	-0.091147	-0.112588	103.369630	25.855352	-1.096742	3.539896	24.466053	-31.582803	-50.811213	44.074628	15.930625	50.992893	59.345380	55.008532	6.299056	68.460220	57.300828	48.097752	-6.046317	78.163415	65.254190	22.527431	-14.544655	78.461181	65.628677
0.335000	-160.147433	-5.066637	-73.570646	-0.053032	-0.091164	-0.112589	103.389366	25.855709	-1.120215	3.656481	24.163637	-31.610779	-50.792340	43.968786	15.904444	51.031777	59.216806	54.936555	6.303217	68.443095	57.257019	47.983423	-6.041560	78.149860	65.197778	22.369526	-14.533648	78.482147	65.519108
0.345000	-160.147433	-5.066637	-73.570646	-0.052992	-0.091181	-0.112582	103.414488	25.865896	-1.148504	3.732461	23.893941	-31.638521	-50.766274	43.866566	15.880501	51.068740	59.086828	54.872783	6.306777	68.413090	57.218599	47.886251	-6.036020	78.117903	65.153100	22.242258	-14.526945	78.482202	65.425169
0.355000	-160.147433	-5.066637	-73.570646	-0.052952	-0.091201	-0.112567	103.450018	25.889527	-1.187998	3.783119	23.643441	-31.651432	-50.713670	43.761243	15.860333	51.103307	58.961211	54.806699	6.308864	68.375354	57.178605	47.797113	-6.030186	78.074463	65.108089	22.137354	-14.524463	78.459917	65.346963
